<mxfile host="app.diagrams.net" modified="2023-02-08T19:38:46.396Z" agent="5.0 (Macintosh; Intel Mac OS X 10_15_7) AppleWebKit/537.36 (KHTML, like Gecko) Chrome/108.0.0.0 Safari/537.36" etag="ZTw1M4Zyb-arYYPf8N1o" version="15.7.0" type="github">
  <diagram name="Page-1" id="2YBvvXClWsGukQMizWep">
    <mxGraphModel dx="543" dy="282" grid="1" gridSize="10" guides="1" tooltips="1" connect="1" arrows="1" fold="1" page="1" pageScale="1" pageWidth="850" pageHeight="1100" math="0" shadow="0">
      <root>
        <mxCell id="0" />
        <mxCell id="1" parent="0" />
        <mxCell id="aM9ryv3xv72pqoxQDRHE-1" value=":Player" style="shape=umlLifeline;perimeter=lifelinePerimeter;whiteSpace=wrap;html=1;container=0;dropTarget=0;collapsible=0;recursiveResize=0;outlineConnect=0;portConstraint=eastwest;newEdgeStyle={&quot;edgeStyle&quot;:&quot;elbowEdgeStyle&quot;,&quot;elbow&quot;:&quot;vertical&quot;,&quot;curved&quot;:0,&quot;rounded&quot;:0};" parent="1" vertex="1">
          <mxGeometry x="175" y="50" width="100" height="410" as="geometry" />
        </mxCell>
        <mxCell id="aM9ryv3xv72pqoxQDRHE-5" value=":System" style="shape=umlLifeline;perimeter=lifelinePerimeter;whiteSpace=wrap;html=1;container=0;dropTarget=0;collapsible=0;recursiveResize=0;outlineConnect=0;portConstraint=eastwest;newEdgeStyle={&quot;edgeStyle&quot;:&quot;elbowEdgeStyle&quot;,&quot;elbow&quot;:&quot;vertical&quot;,&quot;curved&quot;:0,&quot;rounded&quot;:0};" parent="1" vertex="1">
          <mxGeometry x="510" y="40" width="100" height="420" as="geometry" />
        </mxCell>
        <mxCell id="aM9ryv3xv72pqoxQDRHE-7" value="Initialize(nameOfPlayer1, nameOfPlayer2)" style="html=1;verticalAlign=bottom;endArrow=block;edgeStyle=elbowEdgeStyle;elbow=vertical;curved=0;rounded=0;" parent="1" edge="1">
          <mxGeometry relative="1" as="geometry">
            <mxPoint x="224.92857142857144" y="125" as="sourcePoint" />
            <Array as="points">
              <mxPoint x="395" y="125" />
            </Array>
            <mxPoint x="559.5" y="125" as="targetPoint" />
          </mxGeometry>
        </mxCell>
        <mxCell id="aM9ryv3xv72pqoxQDRHE-8" value="determine move validility, update worker position" style="html=1;verticalAlign=bottom;endArrow=open;dashed=1;endSize=8;edgeStyle=elbowEdgeStyle;elbow=vertical;curved=0;rounded=0;" parent="1" edge="1">
          <mxGeometry relative="1" as="geometry">
            <mxPoint x="224.92857142857144" y="306" as="targetPoint" />
            <Array as="points">
              <mxPoint x="290" y="306" />
              <mxPoint x="490" y="276" />
              <mxPoint x="280" y="276" />
              <mxPoint x="540" y="249" />
              <mxPoint x="340" y="296" />
              <mxPoint x="405" y="296" />
            </Array>
            <mxPoint x="559.5" y="306" as="sourcePoint" />
          </mxGeometry>
        </mxCell>
        <mxCell id="Hd75yw4WYgafh29qQEwl-1" value="Santorini Game Senario" style="text;html=1;resizable=0;autosize=1;align=center;verticalAlign=middle;points=[];fillColor=none;strokeColor=none;rounded=0;" vertex="1" parent="1">
          <mxGeometry x="330" y="30" width="140" height="20" as="geometry" />
        </mxCell>
        <mxCell id="Hd75yw4WYgafh29qQEwl-3" value="PlaceWorker(x,y)" style="html=1;verticalAlign=bottom;endArrow=block;edgeStyle=elbowEdgeStyle;elbow=vertical;curved=0;rounded=0;" edge="1" parent="1">
          <mxGeometry x="0.0154" relative="1" as="geometry">
            <mxPoint x="224.92857142857144" y="150" as="sourcePoint" />
            <Array as="points">
              <mxPoint x="395" y="150" />
            </Array>
            <mxPoint x="559.5" y="150" as="targetPoint" />
            <mxPoint as="offset" />
          </mxGeometry>
        </mxCell>
        <mxCell id="Hd75yw4WYgafh29qQEwl-4" value="moveWorker(x,y)" style="html=1;verticalAlign=bottom;endArrow=block;edgeStyle=elbowEdgeStyle;elbow=vertical;curved=0;rounded=0;exitX=0.499;exitY=0.563;exitDx=0;exitDy=0;exitPerimeter=0;" edge="1" parent="1">
          <mxGeometry x="0.0313" relative="1" as="geometry">
            <mxPoint x="224.89999999999998" y="279.83000000000004" as="sourcePoint" />
            <Array as="points">
              <mxPoint x="270" y="280" />
              <mxPoint x="260" y="280" />
              <mxPoint x="290" y="250" />
              <mxPoint x="260" y="250" />
              <mxPoint x="510" y="220" />
              <mxPoint x="340" y="220" />
              <mxPoint x="395" y="210" />
            </Array>
            <mxPoint x="559.5" y="280" as="targetPoint" />
            <mxPoint as="offset" />
          </mxGeometry>
        </mxCell>
        <mxCell id="Hd75yw4WYgafh29qQEwl-7" value="chooseWorker(i)" style="html=1;verticalAlign=bottom;endArrow=block;edgeStyle=elbowEdgeStyle;elbow=vertical;curved=0;rounded=0;" edge="1" parent="1">
          <mxGeometry x="0.0154" relative="1" as="geometry">
            <mxPoint x="225" y="233" as="sourcePoint" />
            <Array as="points">
              <mxPoint x="530" y="233" />
              <mxPoint x="540" y="253" />
              <mxPoint x="260" y="257" />
              <mxPoint x="380" y="227" />
              <mxPoint x="300" y="237" />
              <mxPoint x="335" y="217" />
              <mxPoint x="390" y="207" />
            </Array>
            <mxPoint x="560" y="233" as="targetPoint" />
            <mxPoint as="offset" />
          </mxGeometry>
        </mxCell>
        <mxCell id="Hd75yw4WYgafh29qQEwl-10" value="Loop" style="swimlane;horizontal=0;" vertex="1" parent="1">
          <mxGeometry x="170" y="190" width="420" height="190" as="geometry" />
        </mxCell>
        <mxCell id="Hd75yw4WYgafh29qQEwl-11" value="isPlayerWin" style="rounded=1;whiteSpace=wrap;html=1;" vertex="1" parent="Hd75yw4WYgafh29qQEwl-10">
          <mxGeometry x="30" y="10" width="100" height="20" as="geometry" />
        </mxCell>
        <mxCell id="Hd75yw4WYgafh29qQEwl-5" value="build(x,y)" style="html=1;verticalAlign=bottom;endArrow=block;edgeStyle=elbowEdgeStyle;elbow=vertical;curved=0;rounded=0;" edge="1" parent="1">
          <mxGeometry x="0.0154" relative="1" as="geometry">
            <mxPoint x="224.92857142857144" y="330" as="sourcePoint" />
            <Array as="points">
              <mxPoint x="390" y="330" />
            </Array>
            <mxPoint x="559.5" y="330" as="targetPoint" />
            <mxPoint as="offset" />
          </mxGeometry>
        </mxCell>
        <mxCell id="Hd75yw4WYgafh29qQEwl-6" value="determine build validility, update building height" style="html=1;verticalAlign=bottom;endArrow=open;dashed=1;endSize=8;edgeStyle=elbowEdgeStyle;elbow=vertical;curved=0;rounded=0;" edge="1" parent="1">
          <mxGeometry relative="1" as="geometry">
            <mxPoint x="225" y="357" as="targetPoint" />
            <Array as="points">
              <mxPoint x="530" y="357" />
              <mxPoint x="530" y="327" />
              <mxPoint x="540" y="317" />
              <mxPoint x="340" y="364" />
              <mxPoint x="405" y="364" />
            </Array>
            <mxPoint x="560" y="357" as="sourcePoint" />
          </mxGeometry>
        </mxCell>
        <mxCell id="Hd75yw4WYgafh29qQEwl-9" value="Retrieve worker position&amp;nbsp;" style="html=1;verticalAlign=bottom;endArrow=open;dashed=1;endSize=8;edgeStyle=elbowEdgeStyle;elbow=vertical;curved=0;rounded=0;" edge="1" parent="1">
          <mxGeometry relative="1" as="geometry">
            <mxPoint x="224.92857142857144" y="256" as="targetPoint" />
            <Array as="points">
              <mxPoint x="280" y="256" />
              <mxPoint x="540" y="229" />
              <mxPoint x="340" y="276" />
              <mxPoint x="405" y="276" />
            </Array>
            <mxPoint x="559.5" y="256" as="sourcePoint" />
          </mxGeometry>
        </mxCell>
        <mxCell id="Hd75yw4WYgafh29qQEwl-12" value="EndGame" style="html=1;verticalAlign=bottom;endArrow=block;edgeStyle=elbowEdgeStyle;elbow=vertical;curved=0;rounded=0;" edge="1" parent="1" source="aM9ryv3xv72pqoxQDRHE-1" target="aM9ryv3xv72pqoxQDRHE-5">
          <mxGeometry x="0.0154" relative="1" as="geometry">
            <mxPoint x="230" y="400" as="sourcePoint" />
            <Array as="points">
              <mxPoint x="395" y="400" />
            </Array>
            <mxPoint x="555" y="400" as="targetPoint" />
            <mxPoint as="offset" />
          </mxGeometry>
        </mxCell>
        <mxCell id="Hd75yw4WYgafh29qQEwl-13" value="initialize worker position" style="html=1;verticalAlign=bottom;endArrow=open;dashed=1;endSize=8;edgeStyle=elbowEdgeStyle;elbow=vertical;curved=0;rounded=0;" edge="1" parent="1">
          <mxGeometry relative="1" as="geometry">
            <mxPoint x="223.99857142857144" y="174" as="targetPoint" />
            <Array as="points">
              <mxPoint x="289.07" y="174" />
              <mxPoint x="489.07" y="144" />
              <mxPoint x="279.07" y="144" />
              <mxPoint x="539.07" y="117" />
              <mxPoint x="339.07" y="164" />
              <mxPoint x="404.07" y="164" />
            </Array>
            <mxPoint x="558.57" y="174" as="sourcePoint" />
          </mxGeometry>
        </mxCell>
      </root>
    </mxGraphModel>
  </diagram>
</mxfile>
